<svg xmlns="http://www.w3.org/2000/svg" version="1.1" xmlns:xlink="http://www.w3.org/1999/xlink" xmlns:svgjs="http://svgjs.com/svgjs" width="1193.52" height="1193.52"><svg xmlns="http://www.w3.org/2000/svg" viewBox="0 0 1193.52 1193.52"><path d="M596.76,0C267.71,0,0,267.71,0,596.76s267.71,596.76,596.76,596.76,596.76-267.7,596.76-596.76S925.82,0,596.76,0Zm0,1160.61c-310.91,0-563.85-252.94-563.85-563.85S285.85,32.91,596.76,32.91s563.85,252.94,563.85,563.85S907.67,1160.61,596.76,1160.61Z" style="fill:#58595b"></path><path d="M998,230.24l0,0-.23-.18-.26-.24C898.1,121.25,755.27,53.06,596.74,53.06,297,53.06,53.08,297,53.08,596.76a540.16,540.16,0,0,0,77.36,279.3c2.81,4.7,5.72,9.36,8.68,14q5,7.79,10.33,15.42l5.09-5.43,18.62-20.07L638.64,378.28l447.48,361.3v0l28,24.15q5.74-17.6,10.23-35.64a543.12,543.12,0,0,0,16.06-131.38C1140.44,455.69,1086.42,327,998,230.24ZM845.09,151.7h0L974.47,254.85h0l0,0a508.25,508.25,0,0,1,123,246.46L578.37,87.4c6.11-.3,12.21-.39,18.37-.39A506.85,506.85,0,0,1,845.09,151.7ZM154.54,850.06A504.87,504.87,0,0,1,99.21,707.58a1,1,0,0,1,0-.17L207.31,793.2ZM635.34,332,230.47,768.24,90.67,657.36A499.16,499.16,0,0,1,87,596.76a506.54,506.54,0,0,1,7.13-85v0l154.32,123,23.13-24.92L101.92,474.52v0a499.94,499.94,0,0,1,43.21-113.82v0L350.71,524.6l23.18-24.93L162.11,330.8a509.81,509.81,0,0,1,71.48-91.37q6.12-6.23,12.48-12.27L466.21,402.68l23.13-24.92L271.87,204.31a506.44,506.44,0,0,1,85.92-57.65h0L555.27,304.13l23.14-24.93-186.85-149A502.45,502.45,0,0,1,529.08,91.52h0l575.26,458.71v0c1.4,15.33,2.13,30.8,2.13,46.51a508,508,0,0,1-11.25,106.55Z" style="fill:#58595b"></path><path d="M1035.93,855.2,859.11,706.46l-7,26.09-33,122.07-.44,1.7-4-5.24L704.21,706.9l-23.57,37.39-18.19,28.85-62.17,98.74-126-100.53L412.35,722l-22.7,25.32L218.41,938l-6.79,7.56-16,17.8c4,4.32,7.95,8.58,12.07,12.8,3.83,3.93,7.71,7.81,11.69,11.59,97.87,94.53,230.9,152.72,377.36,152.72,184.53,0,347.87-92.39,446.22-233.37q9.88-14.1,18.86-29l-12.41-11.59Zm-619.7-86.66,34.24,27.3.19.2,1.22,1.4,1.45.73,155.48,124,182.67,145.69a504.67,504.67,0,0,1-141.11,35.88h0L338.55,855.05Zm180.51,338c-137.69,0-262.86-54.9-354.66-144l73.76-82.16h0l283.57,226.15h0C598.48,1106.51,597.66,1106.51,596.74,1106.51Zm356-145.29q-12.29,12.07-25.36,23.18A508.84,508.84,0,0,1,826,1052L627,893.22l62.17-98.74,17.75-28.17,83.13,108.58,43.45,56.74,4.9-18.18,9.65-35.7,30-111.06,139.53,117.42A506.22,506.22,0,0,1,952.75,961.22Z" style="fill:#58595b"></path></svg><style>@media (prefers-color-scheme: light) { :root { filter: none; } }
</style></svg>